<mxfile host="app.diagrams.net" modified="2024-04-13T17:53:36.670Z" agent="Mozilla/5.0 (Windows NT 10.0; Win64; x64) AppleWebKit/537.36 (KHTML, like Gecko) Chrome/123.0.0.0 Safari/537.36" etag="kwI-Ogr0sGiTq63LOMNr" version="24.2.3" type="device">
  <diagram name="Stránka-1" id="LXQTFH3VGPmVba7UyKCK">
    <mxGraphModel dx="2585" dy="15" grid="1" gridSize="10" guides="1" tooltips="1" connect="1" arrows="1" fold="1" page="1" pageScale="1" pageWidth="850" pageHeight="1100" math="0" shadow="0">
      <root>
        <mxCell id="0" />
        <mxCell id="1" parent="0" />
        <mxCell id="x1VUNsYhzXpuXnarCd_2-7" style="edgeStyle=orthogonalEdgeStyle;rounded=0;orthogonalLoop=1;jettySize=auto;html=1;entryX=0.5;entryY=0;entryDx=0;entryDy=0;" edge="1" parent="1" source="x1VUNsYhzXpuXnarCd_2-1" target="x1VUNsYhzXpuXnarCd_2-3">
          <mxGeometry relative="1" as="geometry" />
        </mxCell>
        <mxCell id="x1VUNsYhzXpuXnarCd_2-1" value="&lt;font face=&quot;Verdana&quot; style=&quot;font-size: 24px;&quot;&gt;&lt;b&gt;Start&lt;/b&gt;&lt;/font&gt;" style="strokeWidth=2;html=1;shape=mxgraph.flowchart.terminator;whiteSpace=wrap;fillColor=#0DFF15;" vertex="1" parent="1">
          <mxGeometry x="315" y="1150" width="100" height="60" as="geometry" />
        </mxCell>
        <mxCell id="x1VUNsYhzXpuXnarCd_2-2" value="&lt;font face=&quot;Verdana&quot; style=&quot;font-size: 24px;&quot;&gt;&lt;b&gt;Konec&lt;/b&gt;&lt;/font&gt;" style="strokeWidth=2;html=1;shape=mxgraph.flowchart.terminator;whiteSpace=wrap;fillColor=#EA6B66;" vertex="1" parent="1">
          <mxGeometry x="315" y="1994.5200000000002" width="100" height="60" as="geometry" />
        </mxCell>
        <mxCell id="x1VUNsYhzXpuXnarCd_2-11" style="edgeStyle=orthogonalEdgeStyle;rounded=0;orthogonalLoop=1;jettySize=auto;html=1;entryX=1;entryY=0.5;entryDx=0;entryDy=0;" edge="1" parent="1" source="x1VUNsYhzXpuXnarCd_2-3" target="x1VUNsYhzXpuXnarCd_2-4">
          <mxGeometry relative="1" as="geometry" />
        </mxCell>
        <mxCell id="x1VUNsYhzXpuXnarCd_2-15" style="edgeStyle=orthogonalEdgeStyle;rounded=0;orthogonalLoop=1;jettySize=auto;html=1;entryX=0;entryY=0.5;entryDx=0;entryDy=0;" edge="1" parent="1" source="x1VUNsYhzXpuXnarCd_2-3" target="x1VUNsYhzXpuXnarCd_2-14">
          <mxGeometry relative="1" as="geometry" />
        </mxCell>
        <mxCell id="x1VUNsYhzXpuXnarCd_2-3" value="&lt;font face=&quot;Verdana&quot;&gt;&lt;span style=&quot;font-size: 16px;&quot;&gt;&lt;b&gt;Narazila postava na nový rozcestník ?&lt;/b&gt;&lt;/span&gt;&lt;/font&gt;" style="rhombus;whiteSpace=wrap;html=1;" vertex="1" parent="1">
          <mxGeometry x="225" y="1260" width="280" height="172.31" as="geometry" />
        </mxCell>
        <mxCell id="x1VUNsYhzXpuXnarCd_2-29" style="edgeStyle=orthogonalEdgeStyle;rounded=0;orthogonalLoop=1;jettySize=auto;html=1;entryX=0;entryY=0.5;entryDx=0;entryDy=0;" edge="1" parent="1" source="x1VUNsYhzXpuXnarCd_2-4" target="x1VUNsYhzXpuXnarCd_2-28">
          <mxGeometry relative="1" as="geometry" />
        </mxCell>
        <mxCell id="x1VUNsYhzXpuXnarCd_2-4" value="&lt;font style=&quot;font-size: 18px;&quot; face=&quot;Verdana&quot;&gt;&lt;b style=&quot;&quot;&gt;Ulož si X a Y rozcestníku&lt;/b&gt;&lt;/font&gt;" style="rounded=0;whiteSpace=wrap;html=1;" vertex="1" parent="1">
          <mxGeometry x="10" y="1311.6299999999999" width="138.1" height="69.05" as="geometry" />
        </mxCell>
        <mxCell id="x1VUNsYhzXpuXnarCd_2-5" value="&lt;font style=&quot;font-size: 14px;&quot;&gt;&lt;b&gt;NE&lt;/b&gt;&lt;/font&gt;" style="text;html=1;align=center;verticalAlign=middle;whiteSpace=wrap;rounded=0;" vertex="1" parent="1">
          <mxGeometry x="490" y="1311.63" width="60" height="30" as="geometry" />
        </mxCell>
        <mxCell id="x1VUNsYhzXpuXnarCd_2-6" value="&lt;font style=&quot;font-size: 14px;&quot;&gt;&lt;b&gt;ANO&lt;/b&gt;&lt;/font&gt;" style="text;html=1;align=center;verticalAlign=middle;whiteSpace=wrap;rounded=0;" vertex="1" parent="1">
          <mxGeometry x="180" y="1311.63" width="60" height="30" as="geometry" />
        </mxCell>
        <mxCell id="x1VUNsYhzXpuXnarCd_2-18" style="edgeStyle=orthogonalEdgeStyle;rounded=0;orthogonalLoop=1;jettySize=auto;html=1;entryX=0.5;entryY=0;entryDx=0;entryDy=0;" edge="1" parent="1" source="x1VUNsYhzXpuXnarCd_2-14" target="x1VUNsYhzXpuXnarCd_2-17">
          <mxGeometry relative="1" as="geometry" />
        </mxCell>
        <mxCell id="x1VUNsYhzXpuXnarCd_2-14" value="&lt;font style=&quot;font-size: 18px;&quot; face=&quot;Verdana&quot;&gt;&lt;b style=&quot;&quot;&gt;Ydiff = Abs[(player.y) - (rozcestník.y)]&lt;/b&gt;&lt;/font&gt;" style="rounded=0;whiteSpace=wrap;html=1;" vertex="1" parent="1">
          <mxGeometry x="540" y="1311.63" width="310" height="69.05" as="geometry" />
        </mxCell>
        <mxCell id="x1VUNsYhzXpuXnarCd_2-20" style="edgeStyle=orthogonalEdgeStyle;rounded=0;orthogonalLoop=1;jettySize=auto;html=1;entryX=0.5;entryY=0;entryDx=0;entryDy=0;" edge="1" parent="1" source="x1VUNsYhzXpuXnarCd_2-17" target="x1VUNsYhzXpuXnarCd_2-19">
          <mxGeometry relative="1" as="geometry" />
        </mxCell>
        <mxCell id="x1VUNsYhzXpuXnarCd_2-17" value="&lt;font style=&quot;font-size: 18px;&quot; face=&quot;Verdana&quot;&gt;&lt;b style=&quot;&quot;&gt;Xdiff = Abs[(player.x) - (rozcestník.x)]&lt;/b&gt;&lt;/font&gt;" style="rounded=0;whiteSpace=wrap;html=1;" vertex="1" parent="1">
          <mxGeometry x="540" y="1440" width="310" height="69.05" as="geometry" />
        </mxCell>
        <mxCell id="x1VUNsYhzXpuXnarCd_2-39" style="edgeStyle=orthogonalEdgeStyle;rounded=0;orthogonalLoop=1;jettySize=auto;html=1;entryX=0.5;entryY=0;entryDx=0;entryDy=0;" edge="1" parent="1" source="x1VUNsYhzXpuXnarCd_2-19" target="x1VUNsYhzXpuXnarCd_2-38">
          <mxGeometry relative="1" as="geometry" />
        </mxCell>
        <mxCell id="x1VUNsYhzXpuXnarCd_2-19" value="&lt;font style=&quot;font-size: 18px;&quot; face=&quot;Verdana&quot;&gt;&lt;b style=&quot;&quot;&gt;increase = Ydiff + Xdiff&lt;/b&gt;&lt;/font&gt;" style="rounded=0;whiteSpace=wrap;html=1;" vertex="1" parent="1">
          <mxGeometry x="540" y="1570" width="310" height="69.05" as="geometry" />
        </mxCell>
        <mxCell id="x1VUNsYhzXpuXnarCd_2-43" style="edgeStyle=orthogonalEdgeStyle;rounded=0;orthogonalLoop=1;jettySize=auto;html=1;entryX=0.5;entryY=0;entryDx=0;entryDy=0;" edge="1" parent="1" source="x1VUNsYhzXpuXnarCd_2-21" target="x1VUNsYhzXpuXnarCd_2-24">
          <mxGeometry relative="1" as="geometry" />
        </mxCell>
        <mxCell id="x1VUNsYhzXpuXnarCd_2-21" value="&lt;font face=&quot;Verdana&quot;&gt;&lt;span style=&quot;font-size: 18px;&quot;&gt;&lt;b&gt;úroveň strachu = increase&lt;/b&gt;&lt;/span&gt;&lt;/font&gt;" style="rounded=0;whiteSpace=wrap;html=1;" vertex="1" parent="1">
          <mxGeometry x="540" y="1860" width="310" height="69.05" as="geometry" />
        </mxCell>
        <mxCell id="x1VUNsYhzXpuXnarCd_2-24" value="&lt;font face=&quot;Verdana&quot;&gt;&lt;span style=&quot;font-size: 18px;&quot;&gt;&lt;b&gt;Zvyš úroveň strachu&lt;/b&gt;&lt;/span&gt;&lt;/font&gt;" style="rounded=0;whiteSpace=wrap;html=1;" vertex="1" parent="1">
          <mxGeometry x="605" y="1990" width="180" height="69.05" as="geometry" />
        </mxCell>
        <mxCell id="x1VUNsYhzXpuXnarCd_2-31" style="edgeStyle=orthogonalEdgeStyle;rounded=0;orthogonalLoop=1;jettySize=auto;html=1;entryX=0.5;entryY=0;entryDx=0;entryDy=0;" edge="1" parent="1" source="x1VUNsYhzXpuXnarCd_2-28" target="x1VUNsYhzXpuXnarCd_2-30">
          <mxGeometry relative="1" as="geometry" />
        </mxCell>
        <mxCell id="x1VUNsYhzXpuXnarCd_2-28" value="&lt;font style=&quot;font-size: 18px;&quot; face=&quot;Verdana&quot;&gt;&lt;b style=&quot;&quot;&gt;Je strach na 0 ?&lt;/b&gt;&lt;/font&gt;" style="rhombus;whiteSpace=wrap;html=1;" vertex="1" parent="1">
          <mxGeometry x="100" y="1440" width="197.65" height="121.63" as="geometry" />
        </mxCell>
        <mxCell id="x1VUNsYhzXpuXnarCd_2-30" value="&lt;font style=&quot;font-size: 18px;&quot; face=&quot;Verdana&quot;&gt;&lt;b style=&quot;&quot;&gt;Odeber strach&lt;/b&gt;&lt;/font&gt;" style="rounded=0;whiteSpace=wrap;html=1;" vertex="1" parent="1">
          <mxGeometry x="129.78" y="1620" width="138.1" height="69.05" as="geometry" />
        </mxCell>
        <mxCell id="x1VUNsYhzXpuXnarCd_2-32" style="edgeStyle=orthogonalEdgeStyle;rounded=0;orthogonalLoop=1;jettySize=auto;html=1;exitX=0.5;exitY=1;exitDx=0;exitDy=0;entryX=0;entryY=0.5;entryDx=0;entryDy=0;entryPerimeter=0;" edge="1" parent="1" source="x1VUNsYhzXpuXnarCd_2-30" target="x1VUNsYhzXpuXnarCd_2-2">
          <mxGeometry relative="1" as="geometry" />
        </mxCell>
        <mxCell id="x1VUNsYhzXpuXnarCd_2-33" value="&lt;font style=&quot;font-size: 14px;&quot;&gt;&lt;b&gt;NE&lt;/b&gt;&lt;/font&gt;" style="text;html=1;align=center;verticalAlign=middle;whiteSpace=wrap;rounded=0;" vertex="1" parent="1">
          <mxGeometry x="200" y="1561.63" width="60" height="30" as="geometry" />
        </mxCell>
        <mxCell id="x1VUNsYhzXpuXnarCd_2-36" value="&lt;font style=&quot;font-size: 14px;&quot;&gt;&lt;b&gt;ANO&lt;/b&gt;&lt;/font&gt;" style="text;html=1;align=center;verticalAlign=middle;whiteSpace=wrap;rounded=0;" vertex="1" parent="1">
          <mxGeometry x="297.65" y="1470" width="60" height="30" as="geometry" />
        </mxCell>
        <mxCell id="x1VUNsYhzXpuXnarCd_2-40" style="edgeStyle=orthogonalEdgeStyle;rounded=0;orthogonalLoop=1;jettySize=auto;html=1;entryX=1;entryY=0.5;entryDx=0;entryDy=0;" edge="1" parent="1" source="x1VUNsYhzXpuXnarCd_2-38" target="x1VUNsYhzXpuXnarCd_2-30">
          <mxGeometry relative="1" as="geometry">
            <Array as="points">
              <mxPoint x="310" y="1750" />
              <mxPoint x="310" y="1655" />
            </Array>
          </mxGeometry>
        </mxCell>
        <mxCell id="x1VUNsYhzXpuXnarCd_2-42" style="edgeStyle=orthogonalEdgeStyle;rounded=0;orthogonalLoop=1;jettySize=auto;html=1;entryX=0.5;entryY=0;entryDx=0;entryDy=0;" edge="1" parent="1" source="x1VUNsYhzXpuXnarCd_2-38" target="x1VUNsYhzXpuXnarCd_2-21">
          <mxGeometry relative="1" as="geometry" />
        </mxCell>
        <mxCell id="x1VUNsYhzXpuXnarCd_2-38" value="&lt;font style=&quot;font-size: 18px;&quot; face=&quot;Verdana&quot;&gt;&lt;b style=&quot;&quot;&gt;increase &amp;lt;= const&lt;/b&gt;&lt;/font&gt;" style="rhombus;whiteSpace=wrap;html=1;" vertex="1" parent="1">
          <mxGeometry x="585" y="1689.05" width="220" height="121.63" as="geometry" />
        </mxCell>
        <mxCell id="x1VUNsYhzXpuXnarCd_2-41" value="&lt;font style=&quot;font-size: 14px;&quot;&gt;&lt;b&gt;ANO&lt;/b&gt;&lt;/font&gt;" style="text;html=1;align=center;verticalAlign=middle;whiteSpace=wrap;rounded=0;" vertex="1" parent="1">
          <mxGeometry x="540" y="1720" width="60" height="30" as="geometry" />
        </mxCell>
        <mxCell id="x1VUNsYhzXpuXnarCd_2-44" value="&lt;font style=&quot;font-size: 14px;&quot;&gt;&lt;b&gt;NE&lt;/b&gt;&lt;/font&gt;" style="text;html=1;align=center;verticalAlign=middle;whiteSpace=wrap;rounded=0;" vertex="1" parent="1">
          <mxGeometry x="690" y="1810.68" width="60" height="30" as="geometry" />
        </mxCell>
        <mxCell id="x1VUNsYhzXpuXnarCd_2-45" style="edgeStyle=orthogonalEdgeStyle;rounded=0;orthogonalLoop=1;jettySize=auto;html=1;entryX=1;entryY=0.5;entryDx=0;entryDy=0;entryPerimeter=0;" edge="1" parent="1" source="x1VUNsYhzXpuXnarCd_2-24" target="x1VUNsYhzXpuXnarCd_2-2">
          <mxGeometry relative="1" as="geometry" />
        </mxCell>
        <mxCell id="x1VUNsYhzXpuXnarCd_2-46" style="edgeStyle=orthogonalEdgeStyle;rounded=0;orthogonalLoop=1;jettySize=auto;html=1;entryX=0.5;entryY=0;entryDx=0;entryDy=0;entryPerimeter=0;" edge="1" parent="1" source="x1VUNsYhzXpuXnarCd_2-28" target="x1VUNsYhzXpuXnarCd_2-2">
          <mxGeometry relative="1" as="geometry" />
        </mxCell>
      </root>
    </mxGraphModel>
  </diagram>
</mxfile>
